<svg width="24" height="24" viewBox="0 0 24 24" fill="none" xmlns="http://www.w3.org/2000/svg">
<path d="M0 7.77778C0 3.48223 3.48223 0 7.77778 0H16.2222C20.5178 0 24 3.48223 24 7.77778V16.2222C24 20.5178 20.5178 24 16.2222 24H7.77778C3.48223 24 0 20.5178 0 16.2222V7.77778Z" fill="#1260A4"/>
<path d="M3.00494 13.6995C2.92647 13.4066 3.10028 13.1056 3.39316 13.0271L19.9654 8.58656C20.2583 8.50808 20.5594 8.68189 20.6378 8.97477L20.9931 10.3006C21.0715 10.5934 20.8977 10.8945 20.6049 10.973L4.0326 15.4135C3.73971 15.492 3.43866 15.3182 3.36019 15.0253L3.00494 13.6995Z" fill="#FDFBFF"/>
<path d="M3.18256 14.3624L20.8154 9.63766L20.9931 10.3006C21.0715 10.5934 20.8977 10.8945 20.6049 10.973L4.0326 15.4135C3.73971 15.492 3.43866 15.3182 3.36019 15.0253L3.18256 14.3624Z" fill="#1B1B1D" fill-opacity="0.06"/>
<path d="M6.82761 7.72551C7.07168 7.66011 7.32255 7.80495 7.38795 8.04902L9.98121 17.7272C10.0466 17.9713 9.90177 18.2222 9.6577 18.2876L8.22144 18.6724C7.97737 18.7378 7.72649 18.593 7.6611 18.3489L5.06783 8.67069C5.00243 8.42662 5.14727 8.17575 5.39134 8.11035L6.82761 7.72551Z" fill="#FDFBFF"/>
<path d="M4.93927 9.60509C5.13452 9.55277 5.33522 9.66864 5.38754 9.8639L7.34137 17.1557C7.39369 17.3509 7.27781 17.5516 7.08256 17.604L5.88936 17.9237C5.6941 17.976 5.4934 17.8601 5.44108 17.6649L3.48725 10.3731C3.43493 10.1778 3.55081 9.97712 3.74606 9.9248L4.93927 9.60509Z" fill="#FDFBFF"/>
<path d="M4.93927 9.60509C5.13452 9.55277 5.33522 9.66864 5.38754 9.8639L7.34137 17.1557C7.39369 17.3509 7.27781 17.5516 7.08256 17.604L6.8395 17.6691L4.69621 9.67022L4.93927 9.60509Z" fill="#1B1B1D" fill-opacity="0.06"/>
<path d="M17.1704 16.2745C16.9264 16.3399 16.6755 16.1951 16.6101 15.951L14.0168 6.27281C13.9514 6.02874 14.0963 5.77787 14.3404 5.71247L15.7766 5.32762C16.0207 5.26223 16.2716 5.40707 16.337 5.65114L18.9302 15.3293C18.9956 15.5734 18.8508 15.8243 18.6067 15.8897L17.1704 16.2745Z" fill="#FDFBFF"/>
<path d="M19.0588 14.3949C18.8635 14.4473 18.6628 14.3314 18.6105 14.1361L16.6567 6.84434C16.6044 6.64908 16.7202 6.44838 16.9155 6.39606L18.1087 6.07635C18.3039 6.02403 18.5047 6.1399 18.557 6.33516L20.5108 13.627C20.5631 13.8222 20.4472 14.0229 20.252 14.0752L19.0588 14.3949Z" fill="#FDFBFF"/>
<path d="M19.0588 14.3949C18.8635 14.4473 18.6628 14.3314 18.6105 14.1361L16.6567 6.84434C16.6044 6.64908 16.7202 6.44838 16.9155 6.39606L17.1586 6.33094L19.3018 14.3298L19.0588 14.3949Z" fill="#1B1B1D" fill-opacity="0.06"/>
<path d="M8.36486 11.6949L8.93936 11.541L9.5788 13.9274L9.00429 14.0813L8.36486 11.6949Z" fill="#1B1B1D" fill-opacity="0.06"/>
<path d="M3.56993 12.9797L4.14444 12.8258L4.78387 15.2122L4.20937 15.3661L3.56993 12.9797Z" fill="#1B1B1D" fill-opacity="0.06"/>
<path d="M14.4193 10.0727L14.9938 9.91871L15.6332 12.3051L15.0587 12.4591L14.4193 10.0727Z" fill="#1B1B1D" fill-opacity="0.06"/>
<path d="M19.2142 8.78786L19.7887 8.63392L20.4281 11.0203L19.8536 11.1743L19.2142 8.78786Z" fill="#1B1B1D" fill-opacity="0.06"/>
</svg>
